<svg xmlns="http://www.w3.org/2000/svg" xmlns:xlink="http://www.w3.org/1999/xlink" width="500" zoomAndPan="magnify" viewBox="0 0 375 374.999991" height="500" preserveAspectRatio="xMidYMid meet" version="1.0"><defs><g/><clipPath id="9498ea8d4d"><path d="M 17.703125 127.660156 L 167.628906 127.660156 L 167.628906 256.371094 L 17.703125 256.371094 Z M 17.703125 127.660156 " clip-rule="nonzero"/></clipPath><clipPath id="44641573d8"><path d="M 161.234375 234.742188 L 188 234.742188 L 188 256.371094 L 161.234375 256.371094 Z M 161.234375 234.742188 " clip-rule="nonzero"/></clipPath><clipPath id="fbba4b0a95"><path d="M 207.585938 127.660156 L 357.441406 127.660156 L 357.441406 256.371094 L 207.585938 256.371094 Z M 207.585938 127.660156 " clip-rule="nonzero"/></clipPath><clipPath id="6c97934724"><path d="M 187.128906 234.742188 L 213.980469 234.742188 L 213.980469 256.371094 L 187.128906 256.371094 Z M 187.128906 234.742188 " clip-rule="nonzero"/></clipPath></defs><g fill="#000000" fill-opacity="1"><g transform="translate(51.616651, 351.847536)"><g><path d="M 35.484375 0 L 35.484375 -34.734375 L 35.078125 -34.734375 L 28.296875 0 L 19.59375 0 L 12.953125 -34.734375 L 12.40625 -34.734375 L 12.40625 0 L 3.5625 0 L 3.5625 -47.140625 L 17.8125 -47.140625 L 23.984375 -14.53125 L 24.453125 -14.53125 L 30.5625 -47.140625 L 44.609375 -47.140625 L 44.609375 0 Z M 35.484375 0 "/></g></g></g><g fill="#000000" fill-opacity="1"><g transform="translate(99.774464, 351.847536)"><g><path d="M 11.171875 0 L 11.171875 -16.3125 L 0 -47.140625 L 9.65625 -47.140625 L 15.828125 -26.796875 L 16.4375 -26.796875 L 22.40625 -47.140625 L 31.71875 -47.140625 L 20.546875 -16.3125 L 20.546875 0 Z M 11.171875 0 "/></g></g></g><g fill="#000000" fill-opacity="1"><g transform="translate(131.491486, 351.847536)"><g/></g></g><g fill="#000000" fill-opacity="1"><g transform="translate(143.753567, 351.847536)"><g><path d="M 15.140625 0.546875 C 13.222656 0.546875 11.132812 0.441406 8.875 0.234375 C 6.613281 0.0351562 4.613281 -0.242188 2.875 -0.609375 L 2.875 -8.296875 C 7.53125 -7.929688 10.75 -7.75 12.53125 -7.75 C 14.132812 -7.75 15.347656 -7.835938 16.171875 -8.015625 C 16.992188 -8.203125 17.609375 -8.519531 18.015625 -8.96875 C 18.378906 -9.34375 18.617188 -9.859375 18.734375 -10.515625 C 18.847656 -11.179688 18.90625 -12.128906 18.90625 -13.359375 C 18.90625 -15.046875 18.8125 -16.242188 18.625 -16.953125 C 18.445312 -17.660156 18.070312 -18.1875 17.5 -18.53125 C 16.9375 -18.875 15.945312 -19.179688 14.53125 -19.453125 L 8.078125 -20.625 C 5.796875 -21.03125 4.222656 -22.285156 3.359375 -24.390625 C 2.492188 -26.492188 2.0625 -29.53125 2.0625 -33.5 C 2.0625 -37.382812 2.617188 -40.351562 3.734375 -42.40625 C 4.847656 -44.46875 6.390625 -45.863281 8.359375 -46.59375 C 10.328125 -47.320312 12.816406 -47.6875 15.828125 -47.6875 C 17.929688 -47.6875 19.953125 -47.546875 21.890625 -47.265625 C 23.828125 -46.992188 25.414062 -46.722656 26.65625 -46.453125 L 26.65625 -38.78125 C 24.1875 -39.1875 21.421875 -39.390625 18.359375 -39.390625 C 16.710938 -39.390625 15.441406 -39.320312 14.546875 -39.1875 C 13.660156 -39.050781 13.015625 -38.800781 12.609375 -38.4375 C 12.109375 -38.070312 11.785156 -37.546875 11.640625 -36.859375 C 11.503906 -36.171875 11.4375 -35.164062 11.4375 -33.84375 C 11.4375 -32.425781 11.515625 -31.394531 11.671875 -30.75 C 11.835938 -30.113281 12.125 -29.660156 12.53125 -29.390625 C 12.945312 -29.117188 13.65625 -28.890625 14.65625 -28.703125 L 20.6875 -27.609375 C 22.289062 -27.378906 23.648438 -26.890625 24.765625 -26.140625 C 25.890625 -25.390625 26.769531 -24.144531 27.40625 -22.40625 C 28.039062 -20.570312 28.359375 -17.988281 28.359375 -14.65625 C 28.359375 -10.320312 27.832031 -7.054688 26.78125 -4.859375 C 25.738281 -2.671875 24.289062 -1.222656 22.4375 -0.515625 C 20.582031 0.191406 18.148438 0.546875 15.140625 0.546875 Z M 15.140625 0.546875 "/></g></g></g><g fill="#000000" fill-opacity="1"><g transform="translate(174.100528, 351.847536)"><g><path d="M 25.21875 -0.609375 C 24.257812 -0.296875 23.015625 -0.0234375 21.484375 0.203125 C 19.953125 0.429688 18.5 0.546875 17.125 0.546875 C 12.832031 0.546875 9.679688 -0.160156 7.671875 -1.578125 C 5.660156 -2.992188 4.320312 -5.34375 3.65625 -8.625 C 3 -11.914062 2.671875 -16.894531 2.671875 -23.5625 C 2.671875 -30.1875 3.015625 -35.15625 3.703125 -38.46875 C 4.390625 -41.78125 5.75 -44.144531 7.78125 -45.5625 C 9.8125 -46.976562 12.925781 -47.6875 17.125 -47.6875 C 18.632812 -47.6875 20.128906 -47.582031 21.609375 -47.375 C 23.097656 -47.164062 24.253906 -46.90625 25.078125 -46.59375 L 25.078125 -38.921875 C 22.429688 -39.234375 20.421875 -39.390625 19.046875 -39.390625 C 16.710938 -39.390625 15.097656 -39.082031 14.203125 -38.46875 C 13.316406 -37.851562 12.75 -36.539062 12.5 -34.53125 C 12.25 -32.519531 12.125 -28.863281 12.125 -23.5625 C 12.125 -18.269531 12.25 -14.617188 12.5 -12.609375 C 12.75 -10.597656 13.316406 -9.285156 14.203125 -8.671875 C 15.097656 -8.054688 16.710938 -7.75 19.046875 -7.75 C 21.148438 -7.75 23.207031 -7.90625 25.21875 -8.21875 Z M 25.21875 -0.609375 "/></g></g></g><g fill="#000000" fill-opacity="1"><g transform="translate(201.227839, 351.847536)"><g><path d="M 22.609375 0 L 22.609375 -19.390625 L 12.953125 -19.390625 L 12.953125 0 L 3.5625 0 L 3.5625 -47.140625 L 12.953125 -47.140625 L 12.953125 -28.09375 L 22.609375 -28.09375 L 22.609375 -47.140625 L 32 -47.140625 L 32 0 Z M 22.609375 0 "/></g></g></g><g fill="#000000" fill-opacity="1"><g transform="translate(236.781055, 351.847536)"><g><path d="M 17.328125 0.546875 C 12.578125 0.546875 9.195312 -0.144531 7.1875 -1.53125 C 5.175781 -2.925781 3.921875 -5.164062 3.421875 -8.25 C 2.921875 -11.332031 2.671875 -16.4375 2.671875 -23.5625 C 2.671875 -30.738281 2.921875 -35.851562 3.421875 -38.90625 C 3.921875 -41.96875 5.175781 -44.195312 7.1875 -45.59375 C 9.195312 -46.988281 12.578125 -47.6875 17.328125 -47.6875 C 22.078125 -47.6875 25.457031 -46.988281 27.46875 -45.59375 C 29.476562 -44.195312 30.734375 -41.96875 31.234375 -38.90625 C 31.742188 -35.851562 32 -30.738281 32 -23.5625 C 32 -16.4375 31.742188 -11.332031 31.234375 -8.25 C 30.734375 -5.164062 29.476562 -2.925781 27.46875 -1.53125 C 25.457031 -0.144531 22.078125 0.546875 17.328125 0.546875 Z M 17.328125 -7.75 C 19.160156 -7.75 20.394531 -8 21.03125 -8.5 C 21.675781 -9 22.085938 -10.226562 22.265625 -12.1875 C 22.453125 -14.15625 22.546875 -17.945312 22.546875 -23.5625 C 22.546875 -29.1875 22.453125 -32.976562 22.265625 -34.9375 C 22.085938 -36.90625 21.675781 -38.140625 21.03125 -38.640625 C 20.394531 -39.140625 19.160156 -39.390625 17.328125 -39.390625 C 15.503906 -39.390625 14.269531 -39.140625 13.625 -38.640625 C 12.988281 -38.140625 12.578125 -36.90625 12.390625 -34.9375 C 12.210938 -32.976562 12.125 -29.1875 12.125 -23.5625 C 12.125 -17.945312 12.210938 -14.15625 12.390625 -12.1875 C 12.578125 -10.226562 12.988281 -9 13.625 -8.5 C 14.269531 -8 15.503906 -7.75 17.328125 -7.75 Z M 17.328125 -7.75 "/></g></g></g><g fill="#000000" fill-opacity="1"><g transform="translate(271.44372, 351.847536)"><g><path d="M 3.5625 0 L 3.5625 -47.140625 L 13.015625 -47.140625 L 13.015625 -8.5625 L 24.9375 -8.5625 L 24.9375 0 Z M 3.5625 0 "/></g></g></g><g fill="#000000" fill-opacity="1"><g transform="translate(297.406471, 351.847536)"><g><path d="M 3.5625 0 L 3.5625 -47.140625 L 13.015625 -47.140625 L 13.015625 -8.5625 L 24.9375 -8.5625 L 24.9375 0 Z M 3.5625 0 "/></g></g></g><g clip-path="url(#9498ea8d4d)"><path fill="#19467e" d="M 166.566406 255.125 C 166.519531 255.109375 166.484375 255.097656 166.460938 255.089844 C 166.476562 255.101562 166.515625 255.121094 166.5625 255.136719 C 166.425781 255.542969 166.292969 255.957031 166.171875 256.371094 C 164.546875 255.890625 162.929688 255.433594 161.296875 254.988281 C 115.105469 242.273438 66.105469 239.734375 17.703125 247.882812 C 26.503906 216.941406 35.3125 186 44.117188 155.058594 C 47.871094 141.875 58.300781 131.664062 71.550781 128.152344 C 72.160156 127.992188 72.769531 127.832031 73.378906 127.675781 C 62.039062 162.167969 50.703125 196.664062 39.367188 231.15625 C 77.363281 226.308594 132.710938 235.023438 163.046875 250.410156 C 164.609375 251.199219 166.097656 252.007812 167.511719 252.832031 C 167.152344 253.574219 166.835938 254.339844 166.566406 255.125 " fill-opacity="1" fill-rule="nonzero"/></g><path fill="#0979bd" d="M 110.875 106.90625 C 110.648438 106.953125 110.417969 107.003906 110.191406 107.054688 C 96.785156 109.996094 85.949219 119.824219 81.675781 132.859375 C 71.964844 162.476562 62.804688 190.410156 52.789062 220.957031 C 120.859375 217.777344 158.527344 241.894531 158.527344 241.894531 C 124.234375 211.707031 72.730469 211.828125 72.730469 211.828125 C 72.730469 211.828125 98.183594 140.921875 110.875 106.90625 " fill-opacity="1" fill-rule="nonzero"/><path fill="#58bceb" d="M 147.019531 90.601562 C 146.941406 90.617188 146.859375 90.632812 146.78125 90.652344 C 133.371094 93.550781 122.542969 103.421875 118.265625 116.457031 C 108.804688 145.320312 99.863281 172.570312 90.101562 202.359375 C 141.273438 209.011719 162.832031 239.925781 162.832031 239.925781 C 152.257812 208.808594 108.726562 196.402344 108.726562 196.402344 C 108.726562 196.402344 134.582031 123.933594 147.019531 90.601562 " fill-opacity="1" fill-rule="nonzero"/><g clip-path="url(#44641573d8)"><path fill="#19467e" d="M 187.863281 234.910156 C 176.960938 234.910156 167.53125 241.230469 163.046875 250.410156 C 162.625 251.277344 162.242188 252.175781 161.90625 253.09375 C 161.6875 253.714844 161.480469 254.347656 161.296875 254.988281 C 162.929688 255.433594 164.546875 255.890625 166.171875 256.371094 C 166.292969 255.957031 166.425781 255.542969 166.5625 255.136719 L 166.566406 255.125 C 166.835938 254.339844 167.152344 253.574219 167.511719 252.832031 C 171.128906 245.230469 178.886719 239.972656 187.863281 239.972656 L 187.863281 234.910156 " fill-opacity="1" fill-rule="nonzero"/></g><path fill="#58bceb" d="M 218.679688 94.882812 C 235.765625 76.1875 242.863281 54.917969 238.917969 25.519531 C 249.539062 53.109375 249.976562 83.621094 230.078125 108.082031 C 196.265625 149.652344 134.675781 155.636719 132.070312 204.078125 C 123.480469 146.308594 182.640625 134.320312 218.679688 94.882812 " fill-opacity="1" fill-rule="nonzero"/><path fill="#f29e23" d="M 167.582031 77.460938 C 167.582031 89.042969 175.605469 98.433594 185.5 98.433594 C 195.398438 98.433594 203.421875 89.042969 203.421875 77.460938 C 203.421875 65.878906 195.398438 56.488281 185.5 56.488281 C 175.605469 56.488281 167.582031 65.878906 167.582031 77.460938 " fill-opacity="1" fill-rule="nonzero"/><g clip-path="url(#fbba4b0a95)"><path fill="#19467e" d="M 208.574219 255.125 C 208.625 255.109375 208.660156 255.097656 208.683594 255.089844 C 208.664062 255.101562 208.628906 255.121094 208.582031 255.136719 C 208.71875 255.542969 208.851562 255.957031 208.96875 256.371094 C 210.597656 255.890625 212.214844 255.433594 213.847656 254.988281 C 260.039062 242.273438 309.039062 239.734375 357.441406 247.882812 C 348.636719 216.941406 339.832031 186 331.027344 155.058594 C 327.273438 141.875 316.84375 131.664062 303.59375 128.152344 C 302.984375 127.992188 302.375 127.832031 301.765625 127.675781 C 313.105469 162.167969 324.441406 196.664062 335.777344 231.15625 C 297.78125 226.308594 242.433594 235.023438 212.097656 250.410156 C 210.535156 251.199219 209.046875 252.007812 207.632812 252.832031 C 207.988281 253.574219 208.308594 254.339844 208.574219 255.125 " fill-opacity="1" fill-rule="nonzero"/></g><path fill="#0979bd" d="M 264.265625 106.90625 C 264.496094 106.953125 264.726562 107.003906 264.953125 107.054688 C 278.355469 109.996094 289.195312 119.824219 293.46875 132.859375 C 303.179688 162.476562 312.339844 190.410156 322.351562 220.957031 C 254.285156 217.777344 216.617188 241.894531 216.617188 241.894531 C 250.910156 211.707031 302.414062 211.828125 302.414062 211.828125 C 302.414062 211.828125 276.960938 140.921875 264.265625 106.90625 " fill-opacity="1" fill-rule="nonzero"/><path fill="#58bceb" d="M 212.066406 239.929688 C 212.066406 239.929688 233.625 209.011719 284.800781 202.359375 C 275.160156 172.964844 266.328125 146.035156 257.003906 117.589844 C 253.269531 123.21875 248.625 128.285156 243.257812 132.640625 C 254.632812 164.058594 266.171875 196.398438 266.171875 196.398438 C 266.171875 196.398438 222.644531 208.804688 212.066406 239.929688 " fill-opacity="1" fill-rule="nonzero"/><g clip-path="url(#6c97934724)"><path fill="#19467e" d="M 187.28125 239.972656 C 196.257812 239.972656 204.015625 245.230469 207.632812 252.832031 C 207.988281 253.574219 208.308594 254.339844 208.574219 255.125 L 208.582031 255.136719 C 208.71875 255.542969 208.851562 255.957031 208.96875 256.371094 C 210.597656 255.890625 212.214844 255.433594 213.847656 254.988281 C 213.660156 254.347656 213.457031 253.714844 213.238281 253.09375 C 212.902344 252.175781 212.519531 251.277344 212.097656 250.410156 C 207.613281 241.230469 198.183594 234.910156 187.28125 234.910156 L 187.28125 239.972656 " fill-opacity="1" fill-rule="nonzero"/></g><path fill="#f29e23" d="M 229.503906 139.183594 C 245.574219 130.035156 257.863281 115.742188 262.402344 98.078125 C 263.660156 121.394531 252.074219 141.898438 233.433594 154.53125 C 201.9375 175.875 156.136719 175.9375 138.632812 206.199219 C 145.820312 166.929688 194.960938 158.859375 229.503906 139.183594 " fill-opacity="1" fill-rule="nonzero"/><path fill="#a6a8ab" d="M 222.332031 4.890625 C 232.636719 13.925781 233.058594 16 227.101562 28.34375 C 236.140625 18.039062 238.214844 17.617188 250.558594 23.570312 C 240.253906 14.535156 239.832031 12.460938 245.789062 0.117188 C 236.75 10.421875 234.675781 10.84375 222.332031 4.890625 " fill-opacity="1" fill-rule="nonzero"/><path fill="#a6a8ab" d="M 265.058594 50.175781 C 268.609375 50.660156 269 51.050781 269.484375 54.601562 C 269.96875 51.050781 270.359375 50.660156 273.910156 50.179688 C 270.359375 49.695312 269.96875 49.304688 269.488281 45.75 C 269.003906 49.304688 268.609375 49.695312 265.058594 50.175781 " fill-opacity="1" fill-rule="nonzero"/><path fill="#a6a8ab" d="M 203.070312 47.492188 C 210.289062 48.476562 211.082031 49.273438 212.0625 56.488281 C 213.046875 49.273438 213.84375 48.476562 221.0625 47.5 C 213.84375 46.515625 213.046875 45.71875 212.070312 38.5 C 211.085938 45.714844 210.289062 46.511719 203.070312 47.492188 " fill-opacity="1" fill-rule="nonzero"/></svg>