<svg xmlns="http://www.w3.org/2000/svg" xmlns:xlink="http://www.w3.org/1999/xlink" width="500" zoomAndPan="magnify" viewBox="0 0 375 374.999991" height="500" preserveAspectRatio="xMidYMid meet" version="1.0"><defs><clipPath id="1c13db194b"><path d="M 0 187.035156 L 165.484375 187.035156 L 165.484375 329.296875 L 0 329.296875 Z M 0 187.035156 " clip-rule="nonzero"/></clipPath><clipPath id="e3b7d72af8"><path d="M 158.425781 305.390625 L 188 305.390625 L 188 329.296875 L 158.425781 329.296875 Z M 158.425781 305.390625 " clip-rule="nonzero"/></clipPath><clipPath id="e8ceeaedbb"><path d="M 209.585938 187.035156 L 374.988281 187.035156 L 374.988281 329.296875 L 209.585938 329.296875 Z M 209.585938 187.035156 " clip-rule="nonzero"/></clipPath><clipPath id="7e34c3bfca"><path d="M 187.007812 305.390625 L 216.644531 305.390625 L 216.644531 329.296875 L 187.007812 329.296875 Z M 187.007812 305.390625 " clip-rule="nonzero"/></clipPath></defs><g clip-path="url(#1c13db194b)"><path fill="#19467e" d="M 164.3125 327.921875 C 164.257812 327.902344 164.21875 327.890625 164.195312 327.882812 C 164.214844 327.894531 164.253906 327.914062 164.304688 327.9375 C 164.152344 328.386719 164.007812 328.84375 163.878906 329.296875 C 162.082031 328.769531 160.292969 328.261719 158.492188 327.769531 C 107.507812 313.714844 53.425781 310.910156 0 319.917969 C 9.71875 285.714844 19.4375 251.519531 29.15625 217.316406 C 33.296875 202.746094 44.8125 191.460938 59.4375 187.582031 C 60.109375 187.402344 60.78125 187.226562 61.453125 187.054688 C 48.9375 225.179688 36.425781 263.304688 23.910156 301.429688 C 65.851562 296.074219 126.941406 305.703125 160.425781 322.710938 C 162.148438 323.582031 163.792969 324.476562 165.355469 325.386719 C 164.957031 326.207031 164.609375 327.050781 164.3125 327.921875 " fill-opacity="1" fill-rule="nonzero"/></g><path fill="#0979bd" d="M 102.84375 164.09375 C 102.589844 164.148438 102.335938 164.203125 102.085938 164.257812 C 87.292969 167.507812 75.332031 178.375 70.613281 192.785156 C 59.894531 225.519531 49.78125 256.394531 38.730469 290.15625 C 113.859375 286.640625 155.4375 313.296875 155.4375 313.296875 C 117.585938 279.929688 60.738281 280.066406 60.738281 280.066406 C 60.738281 280.066406 88.832031 201.695312 102.84375 164.09375 " fill-opacity="1" fill-rule="nonzero"/><path fill="#58bceb" d="M 142.734375 146.074219 C 142.648438 146.09375 142.558594 146.109375 142.472656 146.128906 C 127.671875 149.335938 115.71875 160.242188 111 174.652344 C 100.554688 206.558594 90.6875 236.675781 79.910156 269.597656 C 136.390625 276.953125 160.191406 311.125 160.191406 311.125 C 148.515625 276.730469 100.472656 263.015625 100.472656 263.015625 C 100.472656 263.015625 129.007812 182.917969 142.734375 146.074219 " fill-opacity="1" fill-rule="nonzero"/><g clip-path="url(#e3b7d72af8)"><path fill="#19467e" d="M 187.816406 305.578125 C 175.785156 305.578125 165.375 312.566406 160.425781 322.710938 C 159.957031 323.667969 159.535156 324.660156 159.167969 325.675781 C 158.921875 326.363281 158.699219 327.0625 158.492188 327.769531 C 160.292969 328.261719 162.082031 328.769531 163.878906 329.296875 C 164.007812 328.84375 164.152344 328.386719 164.304688 327.9375 L 164.3125 327.921875 C 164.609375 327.050781 164.957031 326.207031 165.355469 325.386719 C 169.347656 316.984375 177.90625 311.171875 187.816406 311.171875 L 187.816406 305.578125 " fill-opacity="1" fill-rule="nonzero"/></g><path fill="#58bceb" d="M 221.828125 150.808594 C 240.6875 130.144531 248.523438 106.632812 244.167969 74.140625 C 255.894531 104.636719 256.375 138.359375 234.414062 165.398438 C 197.089844 211.34375 129.109375 217.957031 126.234375 271.5 C 116.757812 207.648438 182.050781 194.398438 221.828125 150.808594 " fill-opacity="1" fill-rule="nonzero"/><path fill="#f29e23" d="M 165.433594 131.550781 C 165.433594 144.355469 174.289062 154.730469 185.210938 154.730469 C 196.132812 154.730469 204.988281 144.355469 204.988281 131.550781 C 204.988281 118.75 196.132812 108.371094 185.210938 108.371094 C 174.289062 108.371094 165.433594 118.75 165.433594 131.550781 " fill-opacity="1" fill-rule="nonzero"/><g clip-path="url(#e8ceeaedbb)"><path fill="#19467e" d="M 210.679688 327.921875 C 210.730469 327.902344 210.769531 327.890625 210.796875 327.882812 C 210.777344 327.894531 210.738281 327.914062 210.683594 327.9375 C 210.835938 328.386719 210.980469 328.84375 211.113281 329.296875 C 212.90625 328.769531 214.695312 328.261719 216.496094 327.769531 C 267.480469 313.714844 321.566406 310.910156 374.988281 319.917969 C 365.273438 285.714844 355.550781 251.519531 345.832031 217.316406 C 341.691406 202.746094 330.179688 191.460938 315.554688 187.582031 C 314.882812 187.402344 314.210938 187.226562 313.535156 187.054688 C 326.050781 225.179688 338.566406 263.304688 351.078125 301.429688 C 309.136719 296.074219 248.046875 305.703125 214.5625 322.710938 C 212.84375 323.582031 211.199219 324.476562 209.636719 325.386719 C 210.03125 326.207031 210.382812 327.050781 210.679688 327.921875 " fill-opacity="1" fill-rule="nonzero"/></g><path fill="#0979bd" d="M 272.148438 164.09375 C 272.402344 164.148438 272.652344 164.203125 272.90625 164.257812 C 287.699219 167.507812 299.660156 178.375 304.378906 192.785156 C 315.097656 225.519531 325.207031 256.394531 336.261719 290.15625 C 261.128906 286.640625 219.554688 313.296875 219.554688 313.296875 C 257.40625 279.929688 314.253906 280.066406 314.253906 280.066406 C 314.253906 280.066406 286.160156 201.695312 272.148438 164.09375 " fill-opacity="1" fill-rule="nonzero"/><path fill="#58bceb" d="M 214.53125 311.125 C 214.53125 311.125 238.324219 276.949219 294.8125 269.597656 C 284.171875 237.109375 274.421875 207.34375 264.128906 175.902344 C 260.007812 182.125 254.882812 187.726562 248.957031 192.542969 C 261.511719 227.265625 274.25 263.011719 274.25 263.011719 C 274.25 263.011719 226.207031 276.726562 214.53125 311.125 " fill-opacity="1" fill-rule="nonzero"/><g clip-path="url(#7e34c3bfca)"><path fill="#19467e" d="M 187.175781 311.171875 C 197.082031 311.171875 205.644531 316.984375 209.636719 325.386719 C 210.03125 326.207031 210.382812 327.050781 210.679688 327.921875 L 210.683594 327.9375 C 210.835938 328.386719 210.980469 328.84375 211.113281 329.296875 C 212.90625 328.769531 214.695312 328.261719 216.496094 327.769531 C 216.292969 327.0625 216.066406 326.363281 215.824219 325.675781 C 215.453125 324.660156 215.03125 323.667969 214.5625 322.710938 C 209.617188 312.566406 199.207031 305.578125 187.175781 305.578125 L 187.175781 311.171875 " fill-opacity="1" fill-rule="nonzero"/></g><path fill="#f29e23" d="M 233.777344 199.773438 C 251.515625 189.660156 265.082031 173.863281 270.089844 154.339844 C 271.480469 180.109375 258.691406 202.769531 238.113281 216.738281 C 203.351562 240.328125 152.796875 240.394531 133.480469 273.847656 C 141.414062 230.4375 195.652344 221.519531 233.777344 199.773438 " fill-opacity="1" fill-rule="nonzero"/><path fill="#a6a8ab" d="M 225.859375 51.335938 C 237.234375 61.324219 237.703125 63.617188 231.128906 77.261719 C 241.101562 65.871094 243.394531 65.40625 257.019531 71.988281 C 245.644531 62 245.175781 59.707031 251.75 46.0625 C 241.777344 57.453125 239.484375 57.917969 225.859375 51.335938 " fill-opacity="1" fill-rule="nonzero"/><path fill="#a6a8ab" d="M 273.023438 101.390625 C 276.941406 101.929688 277.375 102.359375 277.90625 106.285156 C 278.441406 102.359375 278.871094 101.929688 282.792969 101.398438 C 278.871094 100.859375 278.441406 100.425781 277.910156 96.503906 C 277.375 100.425781 276.941406 100.859375 273.023438 101.390625 " fill-opacity="1" fill-rule="nonzero"/><path fill="#a6a8ab" d="M 204.601562 98.425781 C 212.566406 99.515625 213.445312 100.394531 214.523438 108.371094 C 215.613281 100.394531 216.492188 99.515625 224.460938 98.433594 C 216.492188 97.347656 215.613281 96.464844 214.535156 88.488281 C 213.449219 96.464844 212.570312 97.34375 204.601562 98.425781 " fill-opacity="1" fill-rule="nonzero"/></svg>